<svg id="Layer_1" data-name="Layer 1" xmlns="http://www.w3.org/2000/svg" viewBox="0 0 1650 200"><defs><style>.cls-1{fill:#fff;}</style></defs><title>Artboard 1</title><path class="cls-1" d="M56.27,55.56c.89,0,1.57.57,2.2,1.86a34.55,34.55,0,0,1,2.16,6.65c1,4.15,1,4.47,5.21,4.69,1.7.09,3.41.12,5.12.12,3.45,0,6.9-.15,10.34-.37l.53,0a3.25,3.25,0,0,1,3,1.58A7.15,7.15,0,0,1,86,75.79a3.91,3.91,0,0,1-4,3.54l-.43,0c-4.81-.38-9.62-.85-14.41-1.45a14,14,0,0,0-1.73-.12c-2.61,0-3.6,1.15-3.83,4.48-.27,3.93-.43,7.87-.44,11.81q-.06,22.81,0,45.62a2.33,2.33,0,0,1-1.86,2.61,14.69,14.69,0,0,1-5.12,1.16,7.38,7.38,0,0,1-4.12-1.23,3.14,3.14,0,0,1-1.43-1.84,274.72,274.72,0,0,1-1-42c.26-5.59.34-11.19.72-16.78.32-4.58-2.37-6.39-5.66-6.39A10.08,10.08,0,0,0,41,75.3a35.38,35.38,0,0,1-5.89.5c-.92,0-1.83,0-2.74-.11C28.77,75.39,26,73.53,25,69.8v-.41c1-2.71,2.25-4,4.76-4a9.39,9.39,0,0,1,1.25.09c4.92.66,9.9.93,14.85,1.4.23,0,.44,0,.63,0,1.19,0,1.68-.47,1.46-2.16-.6-4.49.52-6.12,4.82-7.8a9,9,0,0,0,1.31-.61,4.6,4.6,0,0,1,2.21-.79m0-6A10.35,10.35,0,0,0,51,51.18a4.14,4.14,0,0,1-.44.19c-5.17,2-7.92,4.88-8.6,9.16l-.71-.06c-3.28-.27-6.37-.52-9.46-.93a15.46,15.46,0,0,0-2-.14c-3.45,0-8.06,1.38-10.41,8l-.35,1v2.27l.22.79c1.67,6,6.27,9.73,12.64,10.26,1.06.09,2.15.13,3.24.13A41.33,41.33,0,0,0,42,81.22l.35,0c-.25,3.63-.38,7.28-.5,10.82-.07,2-.14,4.05-.23,6.06A279.48,279.48,0,0,0,42.67,141a9,9,0,0,0,4.14,6.24,13.38,13.38,0,0,0,7.38,2.19,20.6,20.6,0,0,0,7.24-1.55,8.24,8.24,0,0,0,5.73-8.25c-.07-15.51-.08-30.84,0-45.58,0-3.27.12-6.66.33-10.09,4.33.53,8.9,1,13.6,1.34.3,0,.6,0,.9,0a9.83,9.83,0,0,0,9.9-8.44,13.14,13.14,0,0,0-2.12-10.3,9.25,9.25,0,0,0-7.9-4.1l-.92,0c-3.85.25-7,.36-10,.36-1.54,0-3,0-4.46-.1l0-.17a40,40,0,0,0-2.58-7.8c-2.21-4.57-5.71-5.25-7.6-5.25ZM67.65,81.78h0Z"/><path class="cls-1" d="M298.62,37.07l2.35,0A36.67,36.67,0,0,1,311.5,39c6.47,2.16,9.14,7.06,8,13.8a33.57,33.57,0,0,1-1.24,4.81,5.48,5.48,0,0,1-5.13,3.84H313c-1.64,0-3.29-1.9-3.7-4.27-.66-3.88-1.15-4.77-5.2-5.13-3.29-.29-6.62-.54-9.93-.54a53.24,53.24,0,0,0-5.74.29c-8.72.95-17.36,2.66-25.45,6.36-2.13,1-4.22,2-6.36,3-2.7,1.2-5.44,2.28-8.15,3.47-3,1.29-6.36,2.41-6.77,6.16-.2,1.83.28,4.52,1.51,5.59a161.31,161.31,0,0,0,14.95,11.44c4.5,3.06,9.31,5.67,14.07,8.33,8,4.48,16.21,8.64,24.1,13.32,6.53,3.86,12.22,8.81,16,15.57,2,3.62,3.41,7.43,2.7,11.67a4,4,0,0,1-1.2,2.22q-5.5,4.74-11.16,9.29a5.92,5.92,0,0,1-2.37,1.12,68.34,68.34,0,0,1-14.75,1.5c-3.12,0-6.24-.17-9.36-.44-7.9-.7-15.78-1.62-23.65-2.57-4.65-.56-9.3-1.23-13.89-2.15a4.56,4.56,0,0,1-2.84-2.56,8.44,8.44,0,0,1,2-9c1.93-2,4-3.86,6.82-3.86a7.35,7.35,0,0,1,2.07.31,21.59,21.59,0,0,0,2.87.35c.46.07,1.23.15,1.31.4.66,2.11,2.58,1.72,4,1.89,9.45,1.14,18.89,2.39,28.37,3.07,1,.07,2,.1,3,.1,4,0,8.08-.49,12.11-.8a10.85,10.85,0,0,0,3.17-1.29C297,127.44,290.51,123,283.5,119.19c-10.06-5.5-20.16-10.91-30.09-16.64-7.26-4.19-13.59-9.55-17.61-17.1a19.46,19.46,0,0,1-2.05-6.61c-1.45-11.67,4.1-20,13.37-26.1a92.35,92.35,0,0,1,51.5-15.68m0-6h0a98.5,98.5,0,0,0-54.79,16.66c-15.28,10-17.16,22.85-16,31.85a25.31,25.31,0,0,0,2.71,8.69c4.13,7.76,10.64,14.14,19.91,19.48,7.88,4.54,16,8.95,23.79,13.2l6.42,3.5a63.67,63.67,0,0,1,9,5.79c-1.13.07-2.24.11-3.33.11-.91,0-1.74,0-2.54-.08-7.77-.55-15.72-1.53-23.41-2.47l-4.67-.57-.28,0a7.62,7.62,0,0,0-4.75-2.22l-.11,0c-.6-.09-1.14-.13-1.57-.15l-.59,0a13.36,13.36,0,0,0-3.65-.52c-5.73,0-9.4,3.87-11.17,5.72a14.39,14.39,0,0,0-3.3,15.17,10.49,10.49,0,0,0,7.31,6.43c4.2.84,8.76,1.55,14.36,2.23,7.64.92,15.77,1.88,23.84,2.59,3.55.31,6.79.47,9.89.47a73.86,73.86,0,0,0,16-1.64,11.94,11.94,0,0,0,4.86-2.32c4.25-3.44,7.95-6.52,11.3-9.4a10,10,0,0,0,3.2-5.79c1.1-6.63-1.41-12.08-3.4-15.6-4-7.08-10-12.9-18.2-17.78-5-2.95-10.1-5.71-15.06-8.39-3-1.63-6.14-3.31-9.17-5L273.57,90c-4.22-2.35-8.21-4.58-12-7.13a156.73,156.73,0,0,1-13.81-10.51,4,4,0,0,1-.07-.71,17.52,17.52,0,0,1,2.39-1.15l.83-.36c1.23-.54,2.5-1.07,3.74-1.59,1.45-.61,2.94-1.23,4.43-1.89,1.28-.57,2.52-1.16,3.71-1.74.9-.43,1.8-.87,2.71-1.28,6.44-2.94,13.94-4.8,23.6-5.85a47,47,0,0,1,5.09-.25c3.11,0,6.25.24,9.19.5l0,.18c.92,5.36,5,9.26,9.61,9.26h.38a11.41,11.41,0,0,0,10.56-8,39,39,0,0,0,1.45-5.67c1.64-9.77-2.86-17.43-12-20.48a42.78,42.78,0,0,0-12.28-2.23q-1.25,0-2.49,0Z"/><path class="cls-1" d="M757.72,56.58a44.6,44.6,0,0,1,13.62,2.26A55.78,55.78,0,0,1,791,70.44c8.56,7.49,11,16.82,8.57,27.74A42,42,0,0,1,792,114.34,64.43,64.43,0,0,1,764.5,135.7c-2.46,1-3.08,2.63-3,5a22.79,22.79,0,0,0,3.18,10.6c.65,1.21,1.47,2.34,2.15,3.54,2.31,4,.7,7.32-3.88,7.95a15.55,15.55,0,0,1-2.09.17c-2.83,0-4-1.27-4.84-4.9-2.4-10-8.67-16.91-17.56-21.61-4.64-2.45-9.34-4.8-14.13-6.94a13.33,13.33,0,0,1-7.11-7.67,24.28,24.28,0,0,1-1.58-5.13c-.54-3.4-.83-6.84-1.22-10.27.32-16.17,6.38-29.7,18.55-40.2,7.54-6.51,15.88-9.64,24.8-9.64m-13.79,74.05,1-.25c1-3.05,1.85-6.15,3-9.13a26.38,26.38,0,0,1,2.59-4.2c1.33,1.11,2.93,2,3.93,3.37a70,70,0,0,1,4,6.79,5,5,0,0,0,.81-.19c1.59-.67,3.21-1.28,4.74-2.06,13.13-6.65,21.54-16.73,23.2-31.8.78-7.09-1.17-13-7-17.36a30,30,0,0,0-17.42-6.36l-1.26,0a35.06,35.06,0,0,0-34.65,29.45c-1.37,8.55-.18,16.68,6.34,23,3.28,3.2,7.12,5.84,10.71,8.73m13.79-80.05h0c-10.53,0-20.19,3.73-28.72,11.1-13.33,11.51-20.27,26.52-20.62,44.63v.4l0,.4c.11,1,.22,2,.32,3,.26,2.46.53,5,.94,7.57a29.73,29.73,0,0,0,1.94,6.42A19.34,19.34,0,0,0,721.84,135c4.2,1.87,8.71,4.09,13.77,6.76,7.93,4.19,12.68,10,14.53,17.7.56,2.35,2.28,9.5,10.68,9.5a21.35,21.35,0,0,0,2.91-.22c4.25-.58,7.47-2.71,9.08-6s1.33-7.14-.81-10.89c-.38-.67-.78-1.29-1.13-1.84s-.7-1.1-1-1.57a17.28,17.28,0,0,1-2.46-7.47,70.65,70.65,0,0,0,29.31-23,47.68,47.68,0,0,0,8.68-18.44C808.51,86,805,74.69,795,65.92a61.34,61.34,0,0,0-21.8-12.8,50.74,50.74,0,0,0-15.46-2.55Zm-16.17,70.6a53,53,0,0,1-4.14-3.58c-4.39-4.29-5.85-9.94-4.6-17.79a28.91,28.91,0,0,1,28.73-24.4l1,0a23.86,23.86,0,0,1,14,5.14c3.79,2.89,5.22,6.56,4.63,11.93-1.36,12.28-7.69,20.89-19.95,27.1l-.16.08a32.1,32.1,0,0,0-1.84-2.82,17.33,17.33,0,0,0-3.9-3.65c-.38-.28-.74-.55-1-.78l-5.26-4.39-3.65,5.8c-.2.31-.45.67-.71,1a19.67,19.67,0,0,0-2.39,4.18q-.41,1.05-.77,2.11Z"/><path class="cls-1" d="M1602.7,61.43l1.35,0a12.52,12.52,0,0,1,5.85,1.76c6.08,3.77,10.56,9.11,12.29,16.07,2.17,8.76-1.2,15.9-8.06,21.4-5.17,4.16-10.53,8.08-15.8,12.11-.59.45-1.17.92-1.89,1.49,7.76,5.57,15.23,11.16,23,16.37a12.19,12.19,0,0,1,5.57,8.74,3.92,3.92,0,0,1-.59,2.64c-1.86,2.59-4,3.89-6.33,3.89a9.25,9.25,0,0,1-5.14-1.84,49.31,49.31,0,0,1-4.77-4c-7.15-6.31-14.27-12.65-21.44-18.95a27.56,27.56,0,0,0-2.89-2c0,5-.06,9.91,0,14.86.06,3.87.36,7.74.41,11.61a2.42,2.42,0,0,1-1.13,1.78c-1.83.94-3.78,1.66-5.86,2.54-1.51-2-3-3.89-4.27-5.84a4.35,4.35,0,0,1-.66-2.29q0-22.61,0-45.23c0-9.68,2.94-18.36,9.42-25.68a26.9,26.9,0,0,1,20.95-9.46m-18.14,43c.21,0,.41,0,.61,0,9-.84,15.84-5.59,21.35-12.46,5.07-6.32,5-9.21,0-15.54l-.26-.32a5.12,5.12,0,0,0-4.09-2.16,6,6,0,0,0-1.6.23,25.69,25.69,0,0,0-16.65,13.22,12.55,12.55,0,0,0-1.3,5.57c0,3.78.4,7.55.64,11.47l1.32,0m18.14-49a32.7,32.7,0,0,0-25.44,11.48c-7.21,8.15-10.89,18.12-10.93,29.64-.05,15.61,0,31,0,45.26a10.37,10.37,0,0,0,1.68,5.62c1,1.53,2.12,3,3.18,4.4l1.24,1.67,2.81,3.8,4.35-1.84,1.66-.68c1.5-.61,3.05-1.25,4.6-2a8.39,8.39,0,0,0,4.4-7.21c0-2.07-.12-4.13-.21-6.12s-.17-3.7-.2-5.5q0-1,0-2l5.93,5.25,8.44,7.46.92.82a41.76,41.76,0,0,0,4.44,3.62,15.11,15.11,0,0,0,8.51,2.88c3,0,7.41-1.11,11.2-6.39a9.91,9.91,0,0,0,1.65-7.06,18.27,18.27,0,0,0-8.15-12.79c-5.4-3.64-10.59-7.41-16.09-11.41l-.17-.12.44-.33c3.61-2.73,7.35-5.54,11-8.45,9.24-7.42,12.74-16.94,10.12-27.52-2-8.09-7.17-14.91-15-19.73a18.55,18.55,0,0,0-8.77-2.65q-.8,0-1.6,0Zm-13.93,42.24c-.11-1.6-.18-3.16-.17-4.69a6.65,6.65,0,0,1,.62-2.82,19.6,19.6,0,0,1,12.51-10.09l.08.1c2.38,3,2.5,3.9,2.5,4.05s-.12,1.06-2.46,4c-4,5-8.23,8.07-13.07,9.46Z"/><path class="cls-1" d="M1366.16,61.43l1.26,0a12.8,12.8,0,0,1,6,1.81c6,3.75,10.44,9,12.17,15.92,2.2,8.75-1.11,15.91-8,21.43-5.22,4.21-10.64,8.17-16,12.24-.54.41-1.06.85-1.73,1.4.7.54,1.26,1,1.86,1.42,7.47,5.36,14.89,10.79,22.43,16,3.09,2.15,3.78,5.33,4.29,8.6.29,1.85-3.55,5.35-6.08,5.42h-.28a10.36,10.36,0,0,1-4.83-1.13,32.72,32.72,0,0,1-5.53-4.31c-7.21-6.34-14.37-12.74-21.59-19.09a40.24,40.24,0,0,0-3.44-2.42c0,1.45,0,2.58,0,3.71.3,7.67.65,15.34.9,23a2.25,2.25,0,0,1-.85,1.78c-2,1-4,1.75-6.16,2.63-1.52-2.07-3-4-4.43-6.09a4,4,0,0,1-.49-2.14q0-22.3,0-44.6c0-9.74,2.77-18.53,9.24-26a27,27,0,0,1,21.14-9.69m-18.17,43c.22,0,.42,0,.61,0,9.13-.83,16-5.65,21.49-12.59,4.88-6.11,4.88-8.52.25-14.88-.2-.28-.42-.55-.63-.82a5.14,5.14,0,0,0-4.11-2.19,6,6,0,0,0-1.57.22,26,26,0,0,0-16.7,13.18,8.38,8.38,0,0,0-1.08,3.73c0,4.4.16,8.79.27,13.35l1.46,0m18.17-49a32.74,32.74,0,0,0-25.67,11.75c-7.1,8.16-10.71,18.22-10.71,29.9,0,17.32,0,31.49,0,44.62a9.67,9.67,0,0,0,1.51,5.48c1.08,1.61,2.23,3.15,3.34,4.64l1.23,1.66,2.79,3.8,4.35-1.81,1.66-.68c1.59-.64,3.23-1.3,4.87-2.12a8.09,8.09,0,0,0,4.18-7.35c-.15-4.49-.33-9-.51-13.48l3.65,3.23q5.51,4.88,11,9.75l.64.56a33.18,33.18,0,0,0,6,4.5,16.26,16.26,0,0,0,7.73,1.87h.43c3.91-.1,7.56-2.84,9.49-5.16,2.43-2.91,2.62-5.51,2.36-7.18-.48-3.09-1.39-8.83-6.79-12.59s-10.93-7.75-16.24-11.58l-1.49-1.08.42-.32c3.64-2.75,7.41-5.59,11.06-8.53,9.08-7.32,12.64-17.11,10-27.57-2-8-7.13-14.76-14.81-19.55a18.81,18.81,0,0,0-9-2.72l-1.49,0Zm-13.82,42.21c-.06-2.21-.1-4.37-.08-6.52a3.47,3.47,0,0,1,.36-.93,20,20,0,0,1,12.56-10.13l.31.41c2.14,2.94,2.28,3.79,2.29,3.92s-.19.95-2.38,3.69c-4,5-8.24,8.13-13.06,9.55Z"/><path class="cls-1" d="M134.66,49.53a5.43,5.43,0,0,1,5.43,3.85,13.8,13.8,0,0,1,0,4.09c-.36,4.47-.84,8.94-1.15,13.41-.46,6.61-.82,13.23-1.21,19.85,0,.74,0,1.49,0,2.23a48.85,48.85,0,0,1,4.91.79c2.14.57,2.58,1.79,1.26,3.51-1.71,2.21-3.16,4.85-6.73,4.85h-.28c.29,3.1.39,6.12.88,9.08,1.52,9.2-4.26,14-10.54,16a7.23,7.23,0,0,1-2.19.37c-2.85,0-4.61-2.2-4.32-6.23.45-6.18,1.26-12.33,1.9-18.4l-16.69,1.17c.15.49.31,1.12.53,1.72,1.22,3.45,2.41,6.91,3.68,10.34,1.61,4.34-.24,7.86-2.71,11.13-.76,1-3.6,1.64-5.94,1.64a4.72,4.72,0,0,1-3.12-.75,8.61,8.61,0,0,1-2-4.21c-1-5.77-1.81-11.57-2.59-17.38a2.17,2.17,0,0,0-1.86-2.2c-3.17-.85-3.89-2-2.8-5.11.7-2,2.16-3.78,3.23-5.69a5.69,5.69,0,0,0,1-2.3,115.94,115.94,0,0,1,3.92-26.56c1.37-5.14,5.38-7.94,10.24-9.34a3.12,3.12,0,0,1,.87-.11,9,9,0,0,1,3.47,1c2.1,1,2.22,2,.94,3.92-.18.28-.53.66-.45.86,1,2.42-1,4-1.64,5.94a30.74,30.74,0,0,0-1.47,5.71c-.72,5.4-1.28,10.82-1.88,16.24-.13,1.15-.19,2.31-.32,3.85H123.8c.23-2.6.34-5.34.75-8,1.49-9.77,2.78-19.55,2.63-29.48,0-3,2.66-4.05,4.85-5.12a6,6,0,0,1,2.63-.6m0-6a12.05,12.05,0,0,0-5.27,1.21l-.4.19c-2.37,1.14-7.91,3.82-7.81,10.41.15,9.79-1.18,19.44-2.56,28.49-.15,1-.26,2-.36,2.94h-4.61l.11-1c.44-4,.9-8.23,1.45-12.3a25.51,25.51,0,0,1,1.19-4.55c.06-.13.24-.45.38-.68a11.48,11.48,0,0,0,1.86-6.15,8.18,8.18,0,0,0,.72-6,8.44,8.44,0,0,0-5-5.31,14.28,14.28,0,0,0-6-1.51,9.12,9.12,0,0,0-2.53.35c-9.63,2.79-13.13,8.91-14.37,13.56a122.61,122.61,0,0,0-4.08,27l-.28.48c-.27.48-.62,1-1,1.57a22.92,22.92,0,0,0-2.7,5.11c-.7,2-1.45,5.11.16,8.14a9,9,0,0,0,4.5,4c.69,5.05,1.44,10.34,2.35,15.57a14.56,14.56,0,0,0,3.47,7.27c1.67,1.8,4.12,2.67,7.51,2.67,1.8,0,7.9-.29,10.72-4a25.44,25.44,0,0,0,3-4.81,10.62,10.62,0,0,0,2.41,4.34A10,10,0,0,0,125,133.6a13.22,13.22,0,0,0,4-.65c10.78-3.44,16.39-12.15,14.64-22.73-.2-1.2-.33-2.45-.43-3.76a17.23,17.23,0,0,0,4.85-4.8l.55-.73a8.1,8.1,0,0,0,1.61-7.75c-.5-1.48-2-4.12-6.08-5.22l-.27-.07.08-1.41c.29-5,.59-10.14.94-15.18.18-2.53.41-5.12.64-7.63.17-1.91.35-3.81.5-5.72,0-.21,0-.41.06-.62a16,16,0,0,0-.16-5.3,11.44,11.44,0,0,0-11.27-8.51Zm-20.57,66.05,1.73-.12q-.21,1.87-.42,3.77c-.44-1.21-.88-2.43-1.31-3.65Z"/><path class="cls-1" d="M377.49,58.73c4.23,0,7.79,2,10.41,6.56,1.75,3.07,2.63,6.63,3.9,10,.14.36.21.73.42,1.46a21.85,21.85,0,0,1,1.48-2.33c2.53-3,4.73-6.41,7.74-8.79a10.14,10.14,0,0,1,6.35-2.34A12.27,12.27,0,0,1,416.92,68c1.26,1.54,1.49,4.86.81,6.91-2.64,8-1.61,16-1.23,24a39.7,39.7,0,0,1-.64,5.52c-.46,4.78-.87,9.56-1.36,15-2.59.14-5.53.5-8.5.5-.55,0-1.1,0-1.65,0-3.76-.2-5.36-2.65-4.11-6.2,2.18-6.17,2.1-12.64,2.76-19,.33-3.17-.72-6.49-1.32-9.81-.9,2.27-3.12,3.78-3.1,6.66a4.5,4.5,0,0,1-2.48,3.2,25.23,25.23,0,0,1-7,1.63,5.42,5.42,0,0,1-.59,0,4.5,4.5,0,0,1-4.2-2.67c-1.88-4.05-3.62-8.17-5.39-12.28-1.33-3.09-2.59-6.21-4-9.28a12.45,12.45,0,0,0-1.61-2.08,63.72,63.72,0,0,0-3.94,18.42c-.35,4.12-.55,8.26-.83,12.39a13.17,13.17,0,0,1-11,12.27,7.07,7.07,0,0,1-1.23.11c-2.35,0-3.77-1.41-3.86-4.15a51.25,51.25,0,0,1,.41-6.82c.55-5.55.62-11.2,3.15-16.38a1.75,1.75,0,0,0,.23-1.2c-1.61-3.9,1.39-7.22,1.33-10.92a2.44,2.44,0,0,1,.27-1.4c3.29-4.44,6.25-9.54,11.42-11.77a21,21,0,0,1,8.15-1.95m0-6A26.91,26.91,0,0,0,367,55.17c-5.91,2.54-9.36,7.39-12.41,11.67-.49.69-1,1.37-1.47,2a8.17,8.17,0,0,0-1.44,5.07,10.45,10.45,0,0,1-.61,2.34,16.24,16.24,0,0,0-1,8.43c-2.06,4.91-2.49,9.93-2.86,14.41-.07.88-.15,1.76-.23,2.63l-.07.72a49.84,49.84,0,0,0-.36,6.9c.21,5.94,4.18,9.94,9.86,9.94a13.11,13.11,0,0,0,2.27-.21,19.1,19.1,0,0,0,15.95-17.77c.1-1.47.19-2.93.28-4.4.16-2.6.32-5.29.55-7.89l0-.49c1.1,2.56,2.24,5.16,3.44,7.73a10.53,10.53,0,0,0,9.64,6.14,11.46,11.46,0,0,0,1.23-.07,33.86,33.86,0,0,0,6.67-1.34,42.19,42.19,0,0,1-1.88,10.68A10.12,10.12,0,0,0,404,125.88c.63,0,1.29,0,2,0,2.17,0,4.27-.17,6.13-.32,1-.08,1.85-.15,2.69-.19l5.19-.28.47-5.18.41-4.61c.32-3.59.62-7,.95-10.34,0-.47.14-1,.24-1.62a21.69,21.69,0,0,0,.42-4.76c-.06-1.23-.13-2.45-.2-3.68-.38-6.43-.74-12.49,1.14-18.18,1.21-3.65,1-9.14-1.86-12.59a18.19,18.19,0,0,0-13.77-6.91,16.22,16.22,0,0,0-10.07,3.63,28.13,28.13,0,0,0-3.59,3.43c-.31-.67-.66-1.34-1-2-4.53-7.92-11-9.58-15.62-9.58Z"/><path class="cls-1" d="M176.84,51.17c8.18,0,15.26,4.89,16.45,15.93,1.41,13-5.36,22.72-16.56,29.18a26.38,26.38,0,0,1-7.26,2.35c-2.4.55-4.88.73-7.82,1.14a23.1,23.1,0,0,0,1.5,3.66c3.79,6,9.35,9.25,15.65,9.25a21.4,21.4,0,0,0,7.35-1.37,54.27,54.27,0,0,0,5.63-2.59,7.61,7.61,0,0,1,3.42-.87,7.69,7.69,0,0,1,5.81,3c1.45,1.67,1.46,6.64-.16,8.6a13.81,13.81,0,0,1-2.93,2.27c-4.55,3.13-9.37,5.39-15,5.39q-.72,0-1.45-.05h-.39a11.24,11.24,0,0,0-3.26.62,13.08,13.08,0,0,1-3.92.62c-3.63,0-6.8-1.67-9.53-4.35-5.12-5-9.91-10.38-14.8-15.64a5.26,5.26,0,0,1-.91-2c-4.47-14.76-1.83-28.44,5.92-41.52,3.91-6.61,9.31-11.07,16.69-12.91a22.89,22.89,0,0,1,5.51-.7m-19,39.88c4.28-1.23,8.48-1.64,11.81-3.56A24.25,24.25,0,0,0,182.1,68.06,8.28,8.28,0,0,0,180,61.18a2.6,2.6,0,0,0-1.9-1,3.31,3.31,0,0,0-1.38.35A25.53,25.53,0,0,0,164,72.33c-2.34,4.72-3.95,9.8-5.76,14.77a18.08,18.08,0,0,0-.4,4m19-45.88h0a28.89,28.89,0,0,0-7,.88c-8.66,2.16-15.52,7.43-20.41,15.67-9,15.22-11.2,30.8-6.5,46.31l.05.18a10.09,10.09,0,0,0,2.2,4.21l3.22,3.48c3.78,4.1,7.68,8.34,11.77,12.36s8.79,6.07,13.73,6.07a19.13,19.13,0,0,0,5.71-.9,5.92,5.92,0,0,1,1.47-.34c.6,0,1.22.06,1.84.06,8,0,14.33-3.68,18.36-6.45l.55-.37a15.44,15.44,0,0,0,3.6-3c3.45-4.16,3.49-12.42.08-16.36-3.66-4.22-7.64-5.11-10.35-5.11a13.56,13.56,0,0,0-6.11,1.51l-.49.25a44.18,44.18,0,0,1-4.51,2.07,15.46,15.46,0,0,1-5.29,1,11.19,11.19,0,0,1-7-2.42,27.94,27.94,0,0,0,8-2.78c14.15-8.17,21.08-20.6,19.52-35-1.4-12.93-10.2-21.29-22.41-21.29ZM166.29,82.5A73.68,73.68,0,0,1,169.41,75a18.37,18.37,0,0,1,6.7-7.29,18.32,18.32,0,0,1-9.45,14.59l-.37.2Z"/><path class="cls-1" d="M1019.84,51.22a25.68,25.68,0,0,1,3.09.19,16.55,16.55,0,0,1,14.55,15.85c.74,13.26-5.51,22.76-16.71,28.92-3.72,2-8.45,2.26-12.72,3.27a15.54,15.54,0,0,1-2.39.14,24.58,24.58,0,0,0,1.53,3.82c3.76,6.05,9.35,9.28,15.68,9.28a21.21,21.21,0,0,0,7.11-1.29,47.33,47.33,0,0,0,5.64-2.56,8.08,8.08,0,0,1,3.68-1,7.6,7.6,0,0,1,5.74,3c1.47,1.68,1.46,6.54-.11,8.61a8.4,8.4,0,0,1-1.91,1.57c-4.88,3.47-10,6.12-16.1,6.12q-.76,0-1.53-.06H1025a12.47,12.47,0,0,0-3.48.7,11.66,11.66,0,0,1-3.39.52c-3.28,0-6.18-1.49-8.91-3.61a25.56,25.56,0,0,1-2.76-2.79c-3.92-4.18-7.87-8.33-11.72-12.57a8.92,8.92,0,0,1-2-3.24c-5.15-17.07-1.15-32.5,9.42-46.17a21.78,21.78,0,0,1,17.65-8.73m-17.89,39.84c4.34-1.26,8.56-1.68,11.87-3.62a24.26,24.26,0,0,0,12.33-19.28,8.26,8.26,0,0,0-2.21-7.05,2.56,2.56,0,0,0-1.83-.91,3.06,3.06,0,0,0-1.28.33,28.33,28.33,0,0,0-10.71,8.58c-4.22,5.49-6.09,12-7.88,18.5a21.86,21.86,0,0,0-.29,3.46m17.89-45.84h0a27.78,27.78,0,0,0-22.4,11.06c-12.4,16-15.91,33.4-10.42,51.58a14.6,14.6,0,0,0,3.31,5.55c3.11,3.42,6.32,6.82,9.41,10.11l2.37,2.52.58.64a22.51,22.51,0,0,0,2.87,2.78c4.21,3.28,8.33,4.87,12.59,4.87a17.72,17.72,0,0,0,5.13-.78,12.44,12.44,0,0,1,1.73-.45c.64,0,1.28.07,1.91.07,8.34,0,14.85-3.87,19.58-7.23l.3-.21a12,12,0,0,0,2.91-2.62c3.28-4.32,3.2-12.34-.15-16.18-3.65-4.18-7.6-5.06-10.26-5.06a14,14,0,0,0-6.42,1.64,42.39,42.39,0,0,1-4.92,2.25,15.27,15.27,0,0,1-5.1.94,11.23,11.23,0,0,1-7.24-2.57,27.43,27.43,0,0,0,8-2.68c13.79-7.59,20.63-19.52,19.8-34.51a22.45,22.45,0,0,0-19.82-21.48,31.82,31.82,0,0,0-3.81-.23ZM1010,82.69a32.62,32.62,0,0,1,4.93-9.93,22.33,22.33,0,0,1,5.28-5,18.33,18.33,0,0,1-9.37,14.5,8.06,8.06,0,0,1-.84.42Z"/><path class="cls-1" d="M1191.85,51.18c8.31,0,15.4,5.09,16.48,16.1,1.29,13.21-5.39,22.75-16.58,28.91-3.72,2-8.45,2.26-12.72,3.27a15.52,15.52,0,0,1-2.39.14,24.58,24.58,0,0,0,1.53,3.82c3.76,6.05,9.35,9.28,15.68,9.28a21.21,21.21,0,0,0,7.11-1.29,47.34,47.34,0,0,0,5.64-2.56,8.08,8.08,0,0,1,3.68-1,7.6,7.6,0,0,1,5.74,3c1.47,1.68,1.46,6.54-.11,8.61a8.41,8.41,0,0,1-1.91,1.57c-4.86,3.45-10,6.12-16,6.12q-.79,0-1.6-.06H1196a10,10,0,0,0-2.88.55,13.72,13.72,0,0,1-4.08.65c-4.33,0-7.87-2.34-11-5.74-1.46-1.56-2.67-3.36-4.13-4.92-2.41-2.57-4.83-5.15-7.45-7.5a10.44,10.44,0,0,1-3.16-5.39c-3.82-14.35-1-27.54,6.49-40.11,3.89-6.54,9.26-10.92,16.57-12.75a22.75,22.75,0,0,1,5.53-.71m-19,39.91c4.42-1.29,8.64-1.7,12-3.65a24.26,24.26,0,0,0,12.32-19.29,8.25,8.25,0,0,0-2.23-7,2.53,2.53,0,0,0-1.81-.89,3.15,3.15,0,0,0-1.3.33,25.86,25.86,0,0,0-12.9,12.07c-2.27,4.6-3.82,9.56-5.58,14.41a19.9,19.9,0,0,0-.46,4.07m19-45.91h0a28.75,28.75,0,0,0-7,.89c-8.6,2.16-15.42,7.38-20.26,15.5-8.73,14.65-11.13,29.7-7.13,44.73a16.46,16.46,0,0,0,5,8.31c2.43,2.18,4.69,4.59,7.08,7.14.57.61,1.15,1.34,1.77,2.12s1.46,1.84,2.34,2.79c4.79,5.15,9.84,7.65,15.43,7.65a19.79,19.79,0,0,0,5.86-.92,6.51,6.51,0,0,1,1.09-.28c.66,0,1.32.07,2,.07,8.29,0,14.78-3.86,19.52-7.23l.3-.21a12,12,0,0,0,2.91-2.62c3.28-4.32,3.2-12.34-.15-16.18-3.65-4.18-7.6-5.06-10.26-5.06a14,14,0,0,0-6.42,1.64,42.38,42.38,0,0,1-4.92,2.25,15.27,15.27,0,0,1-5.1.94,11.23,11.23,0,0,1-7.24-2.57,27.43,27.43,0,0,0,8-2.68c14.11-7.77,21.1-20.11,19.66-34.75-1.28-13.07-10.09-21.51-22.45-21.51Zm-10.59,37.35a70.48,70.48,0,0,1,3-7.26,18.92,18.92,0,0,1,6.87-7.56,18.33,18.33,0,0,1-9.37,14.56l-.5.27Z"/><path class="cls-1" d="M1303.38,51.21a26.54,26.54,0,0,1,4.59.41c6.77,1.19,12.34,7.74,12.9,15.2,1,12.91-5,23.09-16.82,29.44-3.8,2-8.6,2.21-12.95,3.21a17.15,17.15,0,0,1-2,.19,23.3,23.3,0,0,0,1.47,3.73c3.73,6.06,9.35,9.3,15.71,9.3a21.17,21.17,0,0,0,7.07-1.27,44.75,44.75,0,0,0,5.64-2.56,7.9,7.9,0,0,1,3.65-1,7,7,0,0,1,4.11,1.43,6.16,6.16,0,0,1,2.65,6.83,7.27,7.27,0,0,1-3.25,5.19c-4.86,3.23-9.85,5.85-15.78,5.85q-.76,0-1.55-.06h-.37a10.17,10.17,0,0,0-2.88.54,14,14,0,0,1-4.1.64c-4.4,0-8-2.37-11.18-5.85s-5.84-7.32-9.39-10.19c-4.43-3.58-5.72-8.22-6.45-13.33-2.08-14.54,2.12-27.52,11-38.77a22.22,22.22,0,0,1,17.91-8.93m-18,39.85c4.28-1.23,8.48-1.63,11.8-3.56a24.25,24.25,0,0,0,12.44-19.43,8.28,8.28,0,0,0-2.14-6.89,2.6,2.6,0,0,0-1.9-1,3.3,3.3,0,0,0-1.38.35,25.71,25.71,0,0,0-12.76,11.93c-2.3,4.66-3.88,9.69-5.66,14.59a18.32,18.32,0,0,0-.41,4m18-45.85h0a28.36,28.36,0,0,0-22.63,11.23c-10.32,13.14-14.42,27.71-12.18,43.33.82,5.69,2.48,12.18,8.62,17.14a43.45,43.45,0,0,1,5.57,5.91c1,1.2,2,2.45,3.17,3.67,4.81,5.24,9.91,7.79,15.6,7.79a20.08,20.08,0,0,0,5.85-.9,6.67,6.67,0,0,1,1.12-.28c.64,0,1.29.07,1.93.07,7.76,0,14-3.47,19.1-6.86a13.26,13.26,0,0,0,5.82-9.08,12.06,12.06,0,0,0-5.07-12.82,12.94,12.94,0,0,0-7.59-2.54,13.88,13.88,0,0,0-6.42,1.67,39.66,39.66,0,0,1-4.88,2.23,15.22,15.22,0,0,1-5.07.93,11.31,11.31,0,0,1-7.27-2.57,27.32,27.32,0,0,0,7.85-2.57c14-7.53,21.11-20,20-35.18-.77-10.13-8.44-19-17.85-20.66a32.66,32.66,0,0,0-5.62-.5Zm-9.62,37.31a72.74,72.74,0,0,1,3-7.36,18.65,18.65,0,0,1,6.8-7.45,18.32,18.32,0,0,1-9.45,14.59l-.39.21Z"/><path class="cls-1" d="M1127.43,54.75c2.89,0,5.72,1.9,7.86,5.18-8,4.82-16,9.33-23.62,14.4-8.94,5.92-16,13.61-19.5,24-1.91,5.64-2.78,11.46-1.57,17.35a22.38,22.38,0,0,0,21.88,17.85,22,22,0,0,0,9-1.92,35.59,35.59,0,0,0,7.71-4.79c8-6.43,13.58-14.82,19.08-23.9-4.09-.84-7.86-2-11.71-2.34-7.83-.77-15.7-1.16-23.55-1.69-1.58-.11-3.19,0-4.76-.22s-2.88-1-2.79-2.56a4,4,0,0,1,1.86-3,37.57,37.57,0,0,1,8.92-2.44,152.74,152.74,0,0,1,17.4-1,134.2,134.2,0,0,1,15.5.88c3.77.44,5.46,2,6.29,5.77,1.07,4.79,0,9.17-2.31,13.37-3.65,6.76-8.59,12.52-13.92,18a65.12,65.12,0,0,1-15.39,12.19c-4.1,2.22-8.38,3.87-12.92,3.87a18.4,18.4,0,0,1-4.17-.48,21.94,21.94,0,0,1-7.6-3.09c-10.1-7.12-17.14-16.49-18.93-29-1.25-8.74,1.2-16.92,5.77-24.34,9.27-15,22.76-25,38.93-31.56a6.78,6.78,0,0,1,2.56-.51m0-6h0a12.76,12.76,0,0,0-4.81.95c-18.69,7.57-32.36,18.69-41.78,34-5.74,9.32-8,18.85-6.6,28.34,1.9,13.25,9.11,24.36,21.41,33a27.27,27.27,0,0,0,9.7,4,24.51,24.51,0,0,0,5.52.63c6.52,0,12.13-2.62,15.77-4.59,7.32-4,13.11-9.47,16.83-13.27,4.67-4.77,10.58-11.28,14.91-19.32,3.23-6,4.17-11.72,2.88-17.52-1.4-6.28-5.14-9.69-11.45-10.42a140.88,140.88,0,0,0-16.2-.92,159.51,159.51,0,0,0-18.08,1.06,42.57,42.57,0,0,0-10.09,2.69,49.66,49.66,0,0,1,9.54-8.07c5.17-3.43,10.44-6.55,16-9.86,2.42-1.43,4.92-2.92,7.4-4.41l5.31-3.21-3.39-5.2c-3.27-5-8-7.9-12.89-7.9Zm-15,78.8a16.4,16.4,0,0,1-16-13.06c-.87-4.24-.42-8.89,1.37-14.22a36.11,36.11,0,0,1,1.58-3.92c0,4.28,3.37,7.73,8.09,8.29,1.22.14,2.37.17,3.39.19.6,0,1.16,0,1.67.06l6.33.4c5.61.35,11.4.71,17,1.27.87.09,1.76.22,2.67.39a66.32,66.32,0,0,1-13.22,15.21,29.74,29.74,0,0,1-6.39,4,16,16,0,0,1-6.54,1.4Z"/><path class="cls-1" d="M1432.61,66a8.58,8.58,0,0,1,7.59,4,52,52,0,0,1,4.82,9.1,139.87,139.87,0,0,1,8.78,36.33c.84,7.27,2,14.51,3.13,21.74a9.39,9.39,0,0,1-.92,5.8c-.8,1.65-3.1,2.62-5.22,2.62a4.68,4.68,0,0,1-3.28-1.13,2.13,2.13,0,0,1-.33-1.49c.16-2.55.42-5.1.58-7.65a34.82,34.82,0,0,0,.09-5c-.46-5.53-2.89-7.88-8.41-8.3-1.65-.13-3.31-.3-5-.35-.76,0-1.53,0-2.29,0l-3.51,0v-.09H1425l-2.16,0h-.38c-5.52,0-9.24,2.76-11.5,7.73a27.7,27.7,0,0,1-8.23,10.5,6,6,0,0,1-1.57,1,8.88,8.88,0,0,1-3,.62c-2.4,0-3.42-1.76-2.85-5.22a45.91,45.91,0,0,1,2.1-8.21c4.47-12.32,8.92-24.66,13.7-36.87a186.14,186.14,0,0,1,8.16-17.41c2.26-4.38,6.19-6.73,11.06-7.53a13.69,13.69,0,0,1,2.22-.19M1431,111.75c3.86,0,7.22-1.58,10.42-3.91a2.44,2.44,0,0,0,.9-1.83,86.72,86.72,0,0,0-6-25.09,4.35,4.35,0,0,0-4-2.94,5,5,0,0,0-3,1.11,8.05,8.05,0,0,0-2.34,2.83,29.51,29.51,0,0,0-2.17,6c-1.74,7.8-2.69,15.8-6.32,22.86,3.31.19,6.47,0,9.45.62a15.09,15.09,0,0,0,3.13.34M1432.61,60a19.75,19.75,0,0,0-3.2.27c-7.07,1.17-12.4,4.86-15.42,10.7a192.83,192.83,0,0,0-8.42,18c-4.45,11.35-8.67,23-12.74,34.22l-1,2.79a51.86,51.86,0,0,0-2.39,9.28c-.63,3.83,0,6.92,1.95,9.18a8.76,8.76,0,0,0,6.82,3,14.58,14.58,0,0,0,5-1,11.68,11.68,0,0,0,3.22-1.87,33.79,33.79,0,0,0,10-12.73c1.59-3.49,3.56-4.21,6-4.21h.2v.05l6,0h3.51c.82,0,1.49,0,2.1,0,1.08,0,2.2.13,3.38.23l1.31.11a4.78,4.78,0,0,1,2.36.54,4.56,4.56,0,0,1,.53,2.28,27.34,27.34,0,0,1-.08,3.72l0,.39c-.08,1.24-.18,2.47-.29,3.77s-.21,2.56-.29,3.87a7.74,7.74,0,0,0,2.13,6.16,10.57,10.57,0,0,0,7.48,2.84c4.68,0,8.84-2.35,10.62-6a15.27,15.27,0,0,0,1.45-9.37c-1.27-8-2.3-14.61-3.09-21.49a145.2,145.2,0,0,0-9.17-37.88,57.92,57.92,0,0,0-5.38-10.16,14.62,14.62,0,0,0-12.6-6.73ZM1427,105.2c1.06-3.6,1.78-7.22,2.49-10.78.34-1.71.69-3.48,1.07-5.17a20.13,20.13,0,0,1,1.17-3.48,81,81,0,0,1,4.33,18.41,9.89,9.89,0,0,1-5.1,1.58,9.17,9.17,0,0,1-1.89-.21c-.7-.15-1.4-.26-2.08-.35Z"/><path class="cls-1" d="M460.35,49.66a26.51,26.51,0,0,1,6.24.81c9.74,2.36,14.76,7.87,15.81,17.94a35.92,35.92,0,0,1-2.35,18.1c-4.29,10-12.29,15.1-22.87,16.49-2,.27-4.11.38-6.68.6.4,3.08.7,6,1.18,8.92s-.83,6-3.23,7.14a8.9,8.9,0,0,1-3.74.85,5.7,5.7,0,0,1-5.18-2.73,31.29,31.29,0,0,1-2.84-8.3,46.48,46.48,0,0,1-.59-6.9c-2.77-.43-5.52-.69-8.18-1.31A8,8,0,0,1,422,96.8a6.53,6.53,0,0,1,5-9.45,15.66,15.66,0,0,1,2.93-.24c2.07,0,4.23.27,6.47.31.16-1.7.31-4,.59-6.28a53.05,53.05,0,0,1,7.93-22.47c3.55-5.57,8.44-9,15.43-9m-6.58,40.11c5.83,0,10.88-2.51,13.69-6.95A23.59,23.59,0,0,0,471,70.25c0-4.79-2.56-7.92-7.2-9.05a5.93,5.93,0,0,0-1.41-.18,4.82,4.82,0,0,0-3.95,2c-5.85,7.77-8.2,16.71-8.58,26.39a21.67,21.67,0,0,0,3.87.36m6.59-46.11h0c-8.61,0-15.51,4-20.49,11.79a59,59,0,0,0-8.82,25l-.08.69-1,0a21.54,21.54,0,0,0-4,.35,12.52,12.52,0,0,0-9.33,17.79c1.26,2.82,4,6.46,10,7.86,1.29.3,2.57.52,3.82.71a22.68,22.68,0,0,0,.47,3,36.85,36.85,0,0,0,3.46,9.9,11.66,11.66,0,0,0,10.41,5.79,14.94,14.94,0,0,0,6.28-1.42c4.77-2.23,7.55-7.93,6.6-13.57-.14-.82-.26-1.65-.37-2.5l.73-.09c13.15-1.72,22.7-8.66,27.6-20.07a41.91,41.91,0,0,0,2.8-21.08c-1.3-12.57-8-20.14-20.36-23.15a32.65,32.65,0,0,0-7.66-1Zm-3.88,39.83a36.78,36.78,0,0,1,6.42-16.35c1.81.57,2.16,1.5,2.14,3a17.68,17.68,0,0,1-2.65,9.43,9,9,0,0,1-5.91,3.88Z"/><path class="cls-1" d="M815.92,67.3a12.86,12.86,0,0,1,4.93,1,2.54,2.54,0,0,1,1.76,2.88c-.31,4.14-.44,8.28-.73,14.36A74.84,74.84,0,0,0,823.8,109c.17.67.36,1.33.59,2,2.9,8.26,8,12.26,15.58,12.26a28.61,28.61,0,0,0,6.94-.95,13.76,13.76,0,0,0,5.77-3.44A36.28,36.28,0,0,0,864.23,88.9c-.37-5.4-1.68-10.74-2.68-16.09-.36-1.9.37-3.86,2.28-4.09a32.61,32.61,0,0,1,4-.27,19.8,19.8,0,0,1,3.43.28c1.07.19,2.33,1.72,2.74,2.91,3,8.48,2.36,17.24,2,26-.27,5.89-1.12,11.55-3.84,16.8-5.7,11-14.81,17-27.17,17.44l-1.48,0A53,53,0,0,1,831,130.34c-7.2-1.76-12.24-6.47-15.09-13.36a70.54,70.54,0,0,1-5.36-22.67c-.45-7.17-1-14.34-1.57-21.51-.24-3.17.36-4,3.35-5a12.17,12.17,0,0,1,3.57-.54m0-6h0a18.23,18.23,0,0,0-5.31.8c-5.7,1.74-8,5.18-7.58,11.16l.28,3.61c.45,5.84.92,11.89,1.29,17.81a76.93,76.93,0,0,0,5.8,24.59c3.67,8.89,10.31,14.73,19.21,16.9a58.67,58.67,0,0,0,13.85,1.76q.85,0,1.69,0c14.37-.51,25.54-7.66,32.28-20.68,3.54-6.82,4.27-13.89,4.51-19.29l.07-1.58c.4-8.67.82-17.63-2.37-26.7-1-2.84-3.73-6.18-7.36-6.82a25.89,25.89,0,0,0-4.47-.37,38.27,38.27,0,0,0-4.7.31,8.45,8.45,0,0,0-5.85,3.42,10,10,0,0,0-1.6,7.74c.25,1.32.51,2.64.78,4a90.43,90.43,0,0,1,1.81,11.44,30.45,30.45,0,0,1-9.71,25.16,8.06,8.06,0,0,1-3.09,2,22.81,22.81,0,0,1-5.48.77c-3.65,0-7.37-1-9.92-8.25-.14-.4-.28-.86-.44-1.5A69,69,0,0,1,827.86,86v-.12c.09-1.87.16-3.55.23-5.11.15-3.53.28-6.31.49-9.09a8.53,8.53,0,0,0-5.46-8.87,18.9,18.9,0,0,0-7.22-1.48Z"/><path class="cls-1" d="M621.9,49.54a6,6,0,0,1,4.64,2.58C633.59,60.83,637,70.87,637.42,82c.33,7.88.47,15.81-1.64,23.49a27.08,27.08,0,0,1-3.93,8.56,9.33,9.33,0,0,1-7.58,3.64A8.29,8.29,0,0,1,618,115a6.69,6.69,0,0,1-1.2-2.34,22.41,22.41,0,0,0-8.36-11.23c-.37,1.81-.71,3.33-1,4.85-.63,3.39-.8,6.94-2,10.14a40.72,40.72,0,0,1-5.24,9.75,5.78,5.78,0,0,1-4.83,2.54,8.21,8.21,0,0,1-3.75-1,7,7,0,0,1-3.65-7.84c2.7-11.29,7.87-21.45,14.43-30.95a3.83,3.83,0,0,1,2.2-1.29,17.81,17.81,0,0,1,3.84-.42,19.59,19.59,0,0,1,10.07,3c1.13.67,2.18,1.46,3.45,2.32,3.83-2.86,4.6-6.78,4.1-11.12-.69-6-3.12-11.42-5.79-16.75-1.12-2.22-2.32-4.4-3.48-6.6-1.73-3.26-1.24-5.6,1.54-7.37a6.63,6.63,0,0,1,3.55-1.17m0-6a12.52,12.52,0,0,0-6.78,2.12c-5.47,3.49-6.82,9.19-3.61,15.24l1,2c.84,1.56,1.62,3,2.38,4.52,2.19,4.37,4.59,9.47,5.19,14.74a12,12,0,0,1,.08,2.17,25.06,25.06,0,0,0-11.73-3,23.91,23.91,0,0,0-5.13.57,9.76,9.76,0,0,0-5.84,3.74c-7.66,11.11-12.68,21.89-15.32,33a13,13,0,0,0,6.72,14.56,14.07,14.07,0,0,0,6.51,1.66,11.85,11.85,0,0,0,9.71-5,46.36,46.36,0,0,0,6-11.21c.26-.71.47-1.43.66-2.14a11,11,0,0,0,1.67,2.62,14.25,14.25,0,0,0,10.82,4.67,15.28,15.28,0,0,0,12.44-6.13A33,33,0,0,0,641.56,107c2.33-8.47,2.21-16.82,1.85-25.33-.53-12.78-4.64-24-12.22-33.36-3.21-4-6.83-4.8-9.3-4.8Z"/><path class="cls-1" d="M1253.7,49.53a6.35,6.35,0,0,1,4.89,2.65,49.11,49.11,0,0,1,10.82,29.44c.37,8,.51,16.08-1.64,23.9a26.6,26.6,0,0,1-4,8.54,9.29,9.29,0,0,1-7.52,3.58,8.32,8.32,0,0,1-6.36-2.65,6.94,6.94,0,0,1-1.17-2.36,22.27,22.27,0,0,0-8.41-11.18c-.7,3.76-1.56,7.18-1.92,10.65a26.6,26.6,0,0,1-5.51,13.42,6.9,6.9,0,0,1-5.57,3.17,7.26,7.26,0,0,1-1.63-.19,7,7,0,0,1-5.8-6,10.5,10.5,0,0,1,.46-4.26c2.78-10.3,7.58-19.65,13.42-28.52a4.66,4.66,0,0,1,3.49-2.21,19.45,19.45,0,0,1,3-.24,20.53,20.53,0,0,1,11.85,4c.57.39,1.12.8,1.8,1.29,3.83-2.87,4.61-6.74,4.14-11-.67-6.08-3.12-11.56-5.84-16.94a52.89,52.89,0,0,0-3.52-6.57c-2.23-3.19-.39-6.68,2.73-8a5.53,5.53,0,0,1,2.23-.48m0-6a11.5,11.5,0,0,0-4.64,1,12.05,12.05,0,0,0-6.9,7.7,10.84,10.84,0,0,0,1.67,9.28,31.17,31.17,0,0,1,2.24,4.11c.28.58.56,1.15.85,1.72,2.76,5.45,4.7,10.07,5.23,14.89a11.79,11.79,0,0,1,.07,2.08,24.88,24.88,0,0,0-15.84-2.73,10.7,10.7,0,0,0-7.57,4.84c-6.88,10.45-11.53,20.35-14.2,30.26a16.1,16.1,0,0,0-.59,6.79,13,13,0,0,0,10.38,10.88,13.31,13.31,0,0,0,3,.35c2.82,0,6.92-1,10.37-5.57a33.31,33.31,0,0,0,6.07-12.72,10.76,10.76,0,0,0,1.58,2.49,14.26,14.26,0,0,0,10.91,4.74,15.26,15.26,0,0,0,12.37-6,32.5,32.5,0,0,0,4.9-10.49c2.39-8.7,2.22-17.5,1.84-25.76a55.24,55.24,0,0,0-12.15-32.93,12.25,12.25,0,0,0-9.55-4.88Z"/><path class="cls-1" d="M556.68,71a15.14,15.14,0,0,1,10,3.63C576.72,83.07,581,94,580.11,107c-.31,4.59-2.8,8.37-6.16,11.43A43.84,43.84,0,0,1,546.22,130l-.88,0c-4.77,0-8.1-2.37-10.44-6.54s-3.71-10.32-3.69-17.24a44.5,44.5,0,0,1,5.81-23c4.32-7.41,10.4-12.06,19.34-12.22h.31m-3.91,47.88c1.86-.6,4.06-.77,5.53-1.89,5.49-4.18,9.48-9.48,10.16-16.63.57-5.95-1-11.29-5.47-15.42a9.85,9.85,0,0,0-6.69-2.82,8.7,8.7,0,0,0-8.12,6,69.72,69.72,0,0,0-2.78,11.4c-.7,3.52,0,7.26-2.24,10.57-.61.91-.28,3,.34,4.08,1.94,3.54,5.36,4.44,9.27,4.73M556.68,65h-.42c-10.43.18-18.65,5.3-24.42,15.2a50.7,50.7,0,0,0-6.63,26.06c0,7.93,1.51,14.91,4.46,20.15,4.45,7.94,11,9.6,15.67,9.6.4,0,.82,0,1.23,0A49.88,49.88,0,0,0,578,122.85c5-4.54,7.72-9.74,8.11-15.46,1-15.21-4.18-27.78-15.53-37.36a21.26,21.26,0,0,0-13.89-5Zm-7.58,46.76a21.4,21.4,0,0,0,1.89-8.38,23.38,23.38,0,0,1,.29-2.71c.13-.64.25-1.29.38-1.94a51,51,0,0,1,2.12-8.49,2.9,2.9,0,0,1,2.52-2.13,4,4,0,0,1,2.6,1.21c2.83,2.64,4,6.06,3.59,10.46-.45,4.72-2.91,8.64-7.72,12.34a14.71,14.71,0,0,1-1.56.42l-1,.24c-2-.23-2.73-.64-3.11-1Z"/><path class="cls-1" d="M908.57,71a15.38,15.38,0,0,1,10.31,3.85c9.79,8.45,14,19.31,13.13,32.1-.32,4.67-2.85,8.49-6.28,11.59A43.91,43.91,0,0,1,898.17,130l-.91,0c-4.75,0-8.1-2.32-10.43-6.5s-3.3-9-3.64-13.91c-.08-1.17,0-2.35,0-3.52a43.8,43.8,0,0,1,5.72-22.82c4.31-7.41,10.37-12.08,19.31-12.26h.36m-3.88,47.83c1.75-.52,3.81-.63,5.2-1.64,5-3.61,8.74-8.25,10.08-14.43s.11-12.12-4.23-17a10,10,0,0,0-7.42-3.58c-3.55,0-6.91,2.19-8.44,6.33a67.74,67.74,0,0,0-2.57,10.83c-.69,3.59,0,7.4-2.27,10.77-.6.9-.25,3,.38,4.07,2,3.51,5.38,4.43,9.27,4.65M908.57,65h-.48c-10.42.21-18.62,5.34-24.38,15.25a50,50,0,0,0-6.53,25.88c0,.28,0,.62,0,.95,0,.88,0,1.88,0,3,.3,4.2,1.08,10.46,4.38,16.4,4.41,7.92,11,9.58,15.67,9.58.42,0,.84,0,1.27,0a50,50,0,0,0,31.22-13c5.08-4.58,7.85-9.84,8.25-15.64,1-15-4.09-27.46-15.19-37A21.5,21.5,0,0,0,908.57,65ZM901,111.74a21.61,21.61,0,0,0,1.91-8.53,25.06,25.06,0,0,1,.29-2.76l.29-1.54a51.87,51.87,0,0,1,2-8.33c.58-1.55,1.58-2.41,2.82-2.41a4.1,4.1,0,0,1,2.94,1.57c2.92,3.28,3.85,7.11,2.85,11.74-.89,4.13-3.38,7.64-7.59,10.73-.29.1-.92.23-1.36.33l-1,.22c-2-.19-2.75-.6-3.14-1Z"/><path class="cls-1" d="M1537.7,71a14.78,14.78,0,0,1,9.57,3.31c10.39,8.45,14.74,19.58,13.83,32.77-.32,4.58-2.84,8.36-6.21,11.4A43.84,43.84,0,0,1,1527.14,130l-.83,0c-4.62,0-7.93-2.24-10.24-6.25-2.5-4.35-3.41-9.15-3.77-14.08-.09-1.17,0-2.35,0-3.52A43.8,43.8,0,0,1,1518,83.31c4.33-7.49,10.45-12.2,19.48-12.33h.25m-3.87,47.88c1.86-.62,4-.8,5.51-1.93,5.41-4.15,9.35-9.39,10.1-16.45a18.3,18.3,0,0,0-4.61-14.75,10,10,0,0,0-7.43-3.56c-3.55,0-6.91,2.19-8.44,6.33a67.55,67.55,0,0,0-2.57,10.83c-.68,3.59,0,7.4-2.28,10.77-.6.9-.24,3,.39,4.07,2,3.51,5.39,4.42,9.31,4.69M1537.7,65h-.33c-10.52.15-18.8,5.3-24.59,15.32a49.94,49.94,0,0,0-6.49,25.86c0,.32,0,.64,0,1,0,.89,0,1.89,0,3,.31,4.29,1.13,10.67,4.56,16.64s8.82,9.26,15.44,9.26q.57,0,1.16,0a49.87,49.87,0,0,0,31.44-13c5-4.55,7.78-9.74,8.17-15.44,1.07-15.57-4.32-28.3-16-37.83A20.89,20.89,0,0,0,1537.7,65Zm-7.6,46.75a21.75,21.75,0,0,0,1.91-8.53,25.49,25.49,0,0,1,.29-2.76l.28-1.48a52.18,52.18,0,0,1,2-8.39c.57-1.56,1.57-2.41,2.81-2.41a4.16,4.16,0,0,1,3,1.57,12.35,12.35,0,0,1,3.1,10.11c-.5,4.68-2.94,8.58-7.69,12.24a14.45,14.45,0,0,1-1.57.44l-1,.25c-2-.22-2.74-.64-3.13-1Z"/><path class="cls-1" d="M533.36,44.9c3.15,0,5.11,2,5.72,5.12.67,3.43-.56,6.31-3.49,7.58-2.33,1-4.79,1.73-7.16,2.66-3.14,1.23-6.33,2.39-9.36,3.86-5.76,2.8-6.1,5.44-4.86,11.61,1.12,5.59,3.19,11,4.56,16.53,1.23,5,2.45,10,1.92,15.31-.46,4.6-3,7.79-6.47,10.37-4.67,3.43-10.07,4.32-15.72,4.36-2.2-.2-4.4-.38-6.6-.61a7.63,7.63,0,0,1-6.54-5.72c-.43-2.27,1.64-6.28,4.31-7.22a7.82,7.82,0,0,1,2.6-.38,23.29,23.29,0,0,1,2.89.23,21.4,21.4,0,0,0,2.69.17,21.15,21.15,0,0,0,7.49-1.38,2.76,2.76,0,0,0,1.48-1.85,9.81,9.81,0,0,0-.24-3.67c-2-8.24-4.39-16.4-6.13-24.69-1.31-6.27-1.11-12.74,3.17-18a29.44,29.44,0,0,1,8.76-7.07,115.49,115.49,0,0,1,14.5-6,19.68,19.68,0,0,1,6.39-1.29h.1m0-6h-.19a25.36,25.36,0,0,0-8.38,1.66l-1.92.7a102.88,102.88,0,0,0-13.32,5.59A35.58,35.58,0,0,0,499,55.41c-4.88,5.94-6.36,13.68-4.41,23,1.16,5.55,2.6,11.06,4,16.39.66,2.54,1.34,5.15,2,7.73a14.67,14.67,0,0,1-2.7.25,15.48,15.48,0,0,1-1.94-.12,28.82,28.82,0,0,0-3.64-.28,13.6,13.6,0,0,0-4.6.72c-5.23,1.85-9.22,8.65-8.2,14a13.56,13.56,0,0,0,11.79,10.56c1.58.17,3.15.31,4.68.44l2,.18.29,0h.29c5.08,0,12.61-.64,19.24-5.52,5.39-4,8.29-8.74,8.89-14.6.64-6.37-.8-12.2-2.06-17.35-.62-2.52-1.37-5-2.09-7.35-.94-3.09-1.82-6-2.41-8.92a13.07,13.07,0,0,1-.45-3.76,7.81,7.81,0,0,1,2.05-1.27c2.18-1.06,4.49-2,6.95-2.9l2-.77c.88-.35,1.8-.67,2.77-1,1.49-.52,3-1.06,4.59-1.74,5.47-2.38,8.2-8,7-14.24-1.19-6.06-5.74-10-11.61-10Z"/><path class="cls-1" d="M688.95,44.9c3.15,0,5.11,2,5.74,5.07.7,3.43-.52,6.32-3.43,7.61-2.33,1-4.8,1.71-7.15,2.69-3.93,1.65-7.91,3.24-11.69,5.2a5.89,5.89,0,0,0-3,5.09c-.38,4.94,1.59,9.34,2.82,13.9,1.76,6.51,3.8,13,4.23,19.75.57,9-5.23,14.09-11.31,16.17-3.47,1.19-7.23,1.56-10.85,2.3l-.12-.38c-2.47-.23-5-.38-7.42-.71a6.44,6.44,0,0,1-4.28-10.38,6.53,6.53,0,0,1,5.71-2.91,14.15,14.15,0,0,1,2.33.22,17.64,17.64,0,0,0,2.93.24,25,25,0,0,0,7.28-1.22,2.14,2.14,0,0,0,1.81-2.35,20,20,0,0,0-.4-3.47c-2-8.17-4.34-16.27-6.07-24.49-1.34-6.35-1.11-12.88,3.24-18.15a29.58,29.58,0,0,1,8.81-7,114.51,114.51,0,0,1,14.31-5.87,19.88,19.88,0,0,1,6.39-1.3h.13m0-6h-.23a25.58,25.58,0,0,0-8.36,1.67l-1.86.68a102.43,102.43,0,0,0-13.19,5.52,35.52,35.52,0,0,0-10.63,8.49c-5,6-6.46,13.81-4.48,23.2,1.17,5.58,2.62,11.12,4,16.48.65,2.48,1.31,5,1.94,7.56a15.08,15.08,0,0,1-2.71.26,11.56,11.56,0,0,1-1.94-.16,20,20,0,0,0-3.33-.3,13,13,0,0,0-12,17.89,12.36,12.36,0,0,0,9.8,7.34c1.25.17,2.49.3,3.71.4l.53,1.71,5.32-1.09c1-.21,2.09-.39,3.21-.58a52.55,52.55,0,0,0,8.38-1.92c10.12-3.47,16-12,15.35-22.23-.4-6.39-2-12.3-3.62-18-.27-1-.54-2-.8-2.93-.32-1.2-.68-2.36-1-3.47-1-3.11-1.8-5.79-1.6-8.41a2.46,2.46,0,0,1,0-.35c3-1.53,6.11-2.83,9.42-4.2l1.58-.66c.93-.39,1.93-.74,3-1.11,1.38-.48,2.8-1,4.26-1.63,5.46-2.41,8.17-8,6.89-14.3-1.24-6.09-5.7-9.87-11.62-9.87Z"/><path class="cls-1" d="M971.64,50.72a3.54,3.54,0,0,1,3.31,2.8,48.12,48.12,0,0,1,1,6.69c2.78-.55,5.68-1.07,8.56-1.7a7.09,7.09,0,0,1,1.5-.19c1.44,0,2.19.74,2.54,2.56a14.54,14.54,0,0,1-1.73,9.8A3.06,3.06,0,0,1,985,71.9c-2.73.71-5.47,1.4-8.25,1.87-1.43.24-1.85.71-2,2.21q-1.28,17.45-2.84,34.88c-.3,3.33-2.13,6.1-4.39,8.51a4.77,4.77,0,0,1-3.49,1.73,4.72,4.72,0,0,1-1.55-.28c-2.12-.74-2.82-2.34-2.68-4.37.42-6.27.93-12.53,1.35-18.8.46-6.88.86-13.77,1.27-20.66.1-1.64.15-3.28.22-5-2.46,0-4.86.07-7.25.07-1.61,0-3.2,0-4.79-.14a30.54,30.54,0,0,1-8-1.69c-2-.71-2.84-3.5-2-5.49A8.1,8.1,0,0,1,943,61.39a4.49,4.49,0,0,1,2.41-.69,2.58,2.58,0,0,1,1.12.22,14.29,14.29,0,0,0,6.54,1.45h.65c1.2,0,2.4,0,3.61,0l5.53,0a37.27,37.27,0,0,1,2.23-5.57,22.5,22.5,0,0,1,4-5,3.76,3.76,0,0,1,2.55-1.09m0-6A9.77,9.77,0,0,0,965,47.41a28.6,28.6,0,0,0-5.07,6.29,19,19,0,0,0-1.27,2.61h-1.33c-1.46,0-2.66,0-3.8.05h-.46a8.33,8.33,0,0,1-3.88-.83,8.45,8.45,0,0,0-3.79-.84,10.35,10.35,0,0,0-5.89,1.8,13.42,13.42,0,0,0-4.29,5.86,10.5,10.5,0,0,0,0,8.36,9.32,9.32,0,0,0,5.44,5.19,36.75,36.75,0,0,0,9.54,2c1.55.11,3.2.16,5.21.16h1l-.14,2.39c-.33,5.5-.67,11.19-1,16.77-.21,3.13-.45,6.33-.67,9.42s-.46,6.24-.67,9.38c-.33,5,2.17,8.87,6.7,10.44a10.73,10.73,0,0,0,3.52.61,10.61,10.61,0,0,0,7.87-3.63c3.65-3.89,5.61-7.84,6-12.07.9-9.89,1.77-20.47,2.65-32.26,2.11-.45,4.13-1,5.95-1.44a9.07,9.07,0,0,0,5.57-4.18,20.39,20.39,0,0,0,2.35-13.78c-1.32-6.9-6.79-7.44-8.43-7.44a12.91,12.91,0,0,0-2.8.34l-2.2.46c-.1-.43-.21-.87-.34-1.31a9.57,9.57,0,0,0-9.06-7.08Z"/><path class="cls-1" d="M1491.69,50.8c1.64,0,3,1.21,3.51,3.49a54.46,54.46,0,0,1,.65,5.94c2.88-.57,5.78-1.09,8.65-1.72a7.11,7.11,0,0,1,1.51-.19c1.44,0,2.19.74,2.54,2.56a14.53,14.53,0,0,1-1.73,9.8,3.06,3.06,0,0,1-1.8,1.23c-2.73.71-5.47,1.4-8.25,1.87-1.42.24-1.85.7-2,2.2q-1.28,17.45-2.84,34.88c-.3,3.33-2.13,6.1-4.39,8.51a4.77,4.77,0,0,1-3.49,1.73,4.72,4.72,0,0,1-1.55-.28c-2.12-.74-2.82-2.34-2.68-4.37.41-6.2.91-12.4,1.32-18.6.46-7,.87-14,1.3-21.08.09-1.57.15-3.14.22-4.77-2.46,0-4.87.07-7.25.07-1.61,0-3.2,0-4.79-.14a31.43,31.43,0,0,1-8-1.69c-1.9-.66-2.84-3.43-2.05-5.3a8.67,8.67,0,0,1,2.35-3.57,4.28,4.28,0,0,1,2.39-.7,2.62,2.62,0,0,1,1.14.22,14.33,14.33,0,0,0,6.55,1.46h.64c1.23,0,2.45-.05,3.68-.05l5.64,0c1-4,2.48-7.5,5.53-10.16a4.89,4.89,0,0,1,3.15-1.37m0-6a10.77,10.77,0,0,0-7.1,2.86,22.26,22.26,0,0,0-6,8.65h-1.26c-1.49,0-2.72,0-3.87.05h-.45a8.37,8.37,0,0,1-3.89-.83,8.49,8.49,0,0,0-3.8-.84,10.12,10.12,0,0,0-6,1.91,14.14,14.14,0,0,0-4.26,6,10.31,10.31,0,0,0,.19,8.16,9.32,9.32,0,0,0,5.44,5.13,37.19,37.19,0,0,0,9.5,2c1.55.11,3.2.16,5.21.16h.94l-.16,2.75c-.33,5.46-.66,11.1-1,16.63-.2,3.08-.44,6.23-.66,9.27s-.46,6.21-.66,9.33c-.33,5,2.18,8.87,6.71,10.44a10.73,10.73,0,0,0,3.51.61,10.61,10.61,0,0,0,7.87-3.63c3.64-3.89,5.6-7.84,6-12.07.9-9.94,1.77-20.51,2.65-32.25,2.12-.45,4.14-1,6-1.44a9.07,9.07,0,0,0,5.57-4.18,20.38,20.38,0,0,0,2.34-13.78c-1.32-6.89-6.79-7.43-8.43-7.43a12.93,12.93,0,0,0-2.81.34l-2.12.45,0-.11c-1.1-5-4.78-8.2-9.37-8.2Z"/><path class="cls-1" d="M341.55,54.43c1.35,0,2.39.84,3.29,2.45A15.51,15.51,0,0,1,346,69c-4,14-4.35,28.61-6.36,42.93-.54,3.84-.12,7.82,0,11.73,0,1.16-.18,1.73-1.31,2.13-2.14.76-4.17,1.86-6.33,2.53a7.71,7.71,0,0,1-2.29.36,5.82,5.82,0,0,1-5.78-7.76c1.59-5.13,1.08-10.38,1.93-15.52,1.08-6.53,2-13.08,3.4-19.55.51-2.42,2.13-4.59,3.13-6.92a7.81,7.81,0,0,0,.51-2.72c.08-1.93,0-3.87,0-5.8,0-2.28-.1-4.56,0-6.84.22-4.31,3-6.88,6.55-8.57a4.9,4.9,0,0,1,2.07-.54m0-6h0a10.85,10.85,0,0,0-4.62,1.11c-7.86,3.7-9.77,9.49-10,13.7-.09,1.77-.07,3.48,0,5.14,0,.67,0,1.34,0,2s0,1.11,0,1.67c0,1.36,0,2.64,0,3.89a4.09,4.09,0,0,1-.07.67c-.26.59-.61,1.25-1,1.95a22.2,22.2,0,0,0-2.46,6c-1.08,5.08-1.91,10.23-2.7,15.21q-.37,2.31-.75,4.61a64.25,64.25,0,0,0-.65,6.72,34.5,34.5,0,0,1-1.09,8,11.89,11.89,0,0,0,1.67,10.69,12.21,12.21,0,0,0,9.84,4.85,13.71,13.71,0,0,0,4.07-.63,40.73,40.73,0,0,0,4.15-1.62c.85-.37,1.66-.72,2.41-1a7.63,7.63,0,0,0,5.29-8c0-.94-.08-1.88-.12-2.83a43.15,43.15,0,0,1,.06-7.87c.65-4.6,1.12-9.24,1.59-13.73,1-9.9,2-19.25,4.6-28.38A21.46,21.46,0,0,0,350.09,54c-2.67-4.82-6.49-5.54-8.53-5.54Z"/></svg>